<mxfile host="app.diagrams.net" modified="2022-03-08T06:25:33.348Z" agent="5.0 (Windows NT 10.0; Win64; x64) AppleWebKit/537.36 (KHTML, like Gecko) Chrome/98.0.4758.102 Safari/537.36" etag="jKjL0sCrwrE1GZ9vPK2q" version="16.6.4" type="github">
  <diagram id="UHO8YFwRk6cxK7YZ8ZKe" name="第 1 页">
    <mxGraphModel dx="1920" dy="609" grid="1" gridSize="10" guides="1" tooltips="1" connect="1" arrows="1" fold="1" page="1" pageScale="1" pageWidth="827" pageHeight="1169" math="0" shadow="0">
      <root>
        <mxCell id="0" />
        <mxCell id="1" parent="0" />
        <mxCell id="Fb-yhr2E79tdGeBDWqAC-32" style="edgeStyle=orthogonalEdgeStyle;curved=0;rounded=1;sketch=0;orthogonalLoop=1;jettySize=auto;html=1;entryX=0.5;entryY=0;entryDx=0;entryDy=0;fillColor=#d80073;strokeColor=#A50040;" edge="1" parent="1" source="Fb-yhr2E79tdGeBDWqAC-24" target="Fb-yhr2E79tdGeBDWqAC-31">
          <mxGeometry relative="1" as="geometry" />
        </mxCell>
        <mxCell id="Fb-yhr2E79tdGeBDWqAC-24" value="WEB_UI" style="rounded=0;whiteSpace=wrap;html=1;fontSize=12;fillColor=#f8cecc;strokeColor=#b85450;" vertex="1" parent="1">
          <mxGeometry x="-80" y="70" width="580" height="120" as="geometry" />
        </mxCell>
        <mxCell id="Fb-yhr2E79tdGeBDWqAC-34" value="&#xa;&#xa;&lt;span style=&quot;color: rgb(0, 0, 0); font-family: helvetica; font-size: 11px; font-style: normal; font-weight: 400; letter-spacing: normal; text-align: center; text-indent: 0px; text-transform: none; word-spacing: 0px; background-color: rgb(255, 255, 255); display: inline; float: none;&quot;&gt;请求taier创建租户&lt;/span&gt;&#xa;&#xa;" style="edgeStyle=orthogonalEdgeStyle;curved=0;rounded=1;sketch=0;orthogonalLoop=1;jettySize=auto;html=1;entryX=0.5;entryY=0;entryDx=0;entryDy=0;fillColor=#d80073;strokeColor=#A50040;" edge="1" parent="1" source="Fb-yhr2E79tdGeBDWqAC-27" target="Fb-yhr2E79tdGeBDWqAC-35">
          <mxGeometry x="-0.1762" relative="1" as="geometry">
            <mxPoint x="10" y="610" as="targetPoint" />
            <mxPoint as="offset" />
          </mxGeometry>
        </mxCell>
        <mxCell id="Fb-yhr2E79tdGeBDWqAC-27" value="IDAS" style="rounded=1;whiteSpace=wrap;html=1;sketch=0;fillColor=#dae8fc;strokeColor=#6c8ebf;" vertex="1" parent="1">
          <mxGeometry x="-80" y="360" width="580" height="130" as="geometry" />
        </mxCell>
        <mxCell id="Fb-yhr2E79tdGeBDWqAC-33" style="edgeStyle=orthogonalEdgeStyle;curved=0;rounded=1;sketch=0;orthogonalLoop=1;jettySize=auto;html=1;exitX=0.5;exitY=1;exitDx=0;exitDy=0;entryX=0.155;entryY=0.006;entryDx=0;entryDy=0;entryPerimeter=0;fillColor=#d80073;strokeColor=#A50040;" edge="1" parent="1" source="Fb-yhr2E79tdGeBDWqAC-31" target="Fb-yhr2E79tdGeBDWqAC-27">
          <mxGeometry relative="1" as="geometry" />
        </mxCell>
        <mxCell id="Fb-yhr2E79tdGeBDWqAC-31" value="创建项目空间" style="text;html=1;strokeColor=none;fillColor=none;align=center;verticalAlign=middle;whiteSpace=wrap;rounded=0;sketch=0;" vertex="1" parent="1">
          <mxGeometry x="-20" y="270" width="60" height="30" as="geometry" />
        </mxCell>
        <mxCell id="Fb-yhr2E79tdGeBDWqAC-37" style="edgeStyle=orthogonalEdgeStyle;curved=0;rounded=1;sketch=0;orthogonalLoop=1;jettySize=auto;html=1;exitX=0.25;exitY=0;exitDx=0;exitDy=0;entryX=0.094;entryY=1.035;entryDx=0;entryDy=0;entryPerimeter=0;fillColor=#d80073;strokeColor=#A50040;" edge="1" parent="1" source="Fb-yhr2E79tdGeBDWqAC-35" target="Fb-yhr2E79tdGeBDWqAC-27">
          <mxGeometry relative="1" as="geometry" />
        </mxCell>
        <mxCell id="Fb-yhr2E79tdGeBDWqAC-38" value="返回创建结果以及taier数据库&lt;br&gt;中的租户id返回给idas，交给idas来对&lt;br&gt;不同的平台进行融合保存，通过项目id&lt;br&gt;以及taier租户id关联" style="edgeLabel;html=1;align=center;verticalAlign=middle;resizable=0;points=[];" vertex="1" connectable="0" parent="Fb-yhr2E79tdGeBDWqAC-37">
          <mxGeometry x="0.3598" relative="1" as="geometry">
            <mxPoint as="offset" />
          </mxGeometry>
        </mxCell>
        <mxCell id="Fb-yhr2E79tdGeBDWqAC-35" value="Taier" style="rounded=1;whiteSpace=wrap;html=1;sketch=0;fillColor=#fff2cc;strokeColor=#d6b656;" vertex="1" parent="1">
          <mxGeometry x="-80" y="650" width="220" height="130" as="geometry" />
        </mxCell>
      </root>
    </mxGraphModel>
  </diagram>
</mxfile>
